<?xml version="1.0" standalone="no"?>
<!DOCTYPE svg PUBLIC "-//W3C//DTD SVG 20010904//EN"
 "http://www.w3.org/TR/2001/REC-SVG-20010904/DTD/svg10.dtd">
<svg version="1.0" xmlns="http://www.w3.org/2000/svg"
 width="25" height="25" viewBox="0 0 512.000000 512.000000"
 preserveAspectRatio="xMidYMid meet">
<metadata>
Created by potrace 1.16, written by Peter Selinger 2001-2019
</metadata>
<g transform="translate(0.000000,512.000000) scale(0.100000,-0.100000)"
fill="#364153" stroke="none">
<path d="M192 5099 c-71 -28 -144 -101 -171 -174 -28 -75 -28 -175 0 -252 20
-55 67 -104 1048 -1085 l1026 -1028 -1026 -1028 c-981 -981 -1028 -1030 -1048
-1085 -64 -174 15 -367 174 -426 75 -28 175 -28 252 0 55 20 104 67 1086 1048
l1027 1026 1028 -1026 c981 -981 1030 -1028 1085 -1048 174 -64 367 15 426
174 28 75 28 175 0 252 -20 55 -67 104 -1048 1085 l-1026 1028 1026 1028 c981
981 1028 1030 1048 1085 28 77 28 177 0 252 -59 159 -252 238 -426 174 -55
-20 -104 -67 -1085 -1048 l-1028 -1026 -1027 1026 c-982 981 -1031 1028 -1086
1048 -76 28 -182 28 -255 0z"/>
</g>
</svg>
