<?xml version="1.0" standalone="no"?>
<!DOCTYPE svg PUBLIC "-//W3C//DTD SVG 20010904//EN"
 "http://www.w3.org/TR/2001/REC-SVG-20010904/DTD/svg10.dtd">
<svg version="1.0" xmlns="http://www.w3.org/2000/svg"
 width="20" height="20" viewBox="0 0 512.000000 512.000000"
 preserveAspectRatio="xMidYMid meet">
<metadata>
Created by potrace 1.16, written by Peter Selinger 2001-2019
</metadata>
<g transform="translate(0.000000,512.000000) scale(0.100000,-0.100000)"
fill="#000000" stroke="none">
<path d="M2205 5101 c-278 -75 -496 -291 -570 -565 l-18 -66 -148 0 c-192 0
-300 -22 -444 -91 -193 -92 -351 -250 -446 -447 -17 -34 -33 -78 -36 -96 -7
-47 27 -120 69 -146 33 -20 43 -20 1948 -20 1905 0 1915 0 1948 20 42 26 76
99 69 146 -3 18 -19 62 -36 96 -127 264 -368 456 -649 518 -64 15 -126 20
-238 20 l-151 0 -18 68 c-38 142 -147 312 -258 402 -76 62 -171 115 -262 147
l-80 28 -305 2 c-272 2 -313 1 -375 -16z m655 -310 c99 -32 169 -81 237 -166
29 -36 83 -134 83 -149 0 -3 -279 -6 -620 -6 -341 0 -620 3 -620 6 0 15 54
113 83 149 86 108 187 166 322 185 33 5 148 7 255 5 164 -2 205 -6 260 -24z"/>
<path d="M900 3336 c0 -19 47 -695 105 -1503 72 -1010 109 -1484 120 -1519 20
-67 81 -161 136 -207 24 -21 73 -53 109 -70 l65 -32 1125 0 1125 0 65 32 c36
17 85 49 109 70 55 46 116 140 136 207 11 35 48 507 120 1519 58 808 105 1484
105 1503 l0 34 -1660 0 -1660 0 0 -34z m2297 -654 c12 -7 31 -27 42 -46 28
-45 28 -60 -18 -961 -41 -821 -38 -793 -104 -834 -67 -41 -156 -22 -196 42
-28 46 -28 61 18 962 41 809 39 792 97 830 52 34 105 36 161 7z m-1120 -3 c66
-41 63 -13 104 -834 46 -901 46 -916 18 -962 -40 -64 -129 -83 -196 -42 -66
41 -63 13 -104 834 -46 901 -46 916 -18 961 11 19 33 41 47 49 40 21 109 19
149 -6z"/>
</g>
</svg>
