<?xml version="1.0" standalone="no"?>
<!DOCTYPE svg PUBLIC "-//W3C//DTD SVG 20010904//EN"
 "http://www.w3.org/TR/2001/REC-SVG-20010904/DTD/svg10.dtd">
<svg version="1.0" xmlns="http://www.w3.org/2000/svg"
 width="120" height="120" viewBox="0 0 512.000000 512.000000"
 preserveAspectRatio="xMidYMid meet">
<metadata>
Created by potrace 1.16, written by Peter Selinger 2001-2019
</metadata>
<g transform="translate(0.000000,512.000000) scale(0.100000,-0.100000)"
fill="#000000" stroke="none">
<path d="M2360 4780 c-41 -11 -118 -41 -170 -67 -81 -40 -109 -62 -195 -148
-86 -86 -108 -114 -148 -195 -65 -131 -87 -224 -87 -369 0 -102 7 -162 26
-223 5 -17 -18 -18 -390 -18 -365 0 -397 -1 -414 -18 -9 -9 -180 -470 -380
-1024 l-362 -1006 0 -676 c0 -663 0 -676 20 -696 20 -20 33 -20 2300 -20 2267
0 2280 0 2300 20 20 20 20 33 20 696 l0 676 -362 1006 c-200 554 -371 1015
-380 1024 -17 17 -49 18 -414 18 -372 0 -395 1 -390 18 19 61 26 121 26 223 0
145 -22 238 -87 369 -40 81 -62 109 -148 195 -86 86 -114 108 -195 148 -133
66 -224 87 -374 86 -85 0 -143 -6 -196 -19z m354 -166 c190 -46 362 -198 439
-389 31 -77 32 -85 32 -225 0 -135 -2 -150 -28 -215 -75 -189 -209 -318 -400
-387 l-89 -31 -51 -104 c-28 -57 -54 -103 -57 -103 -3 0 -29 47 -57 104 l-52
104 -68 22 c-151 49 -293 158 -366 281 -62 106 -89 206 -89 329 0 177 59 319
186 446 162 162 378 222 600 168z m-819 -1070 c96 -140 247 -255 398 -304 36
-11 42 -19 122 -180 46 -92 91 -170 100 -174 9 -3 29 -6 45 -6 16 0 36 3 45 6
9 4 54 82 100 174 80 161 86 169 122 180 154 50 313 175 411 323 l25 37 368 0
369 0 0 -560 0 -560 -1440 0 -1440 0 0 560 0 560 368 0 369 0 38 -56z m-1054
-1444 c-66 -183 -122 -334 -124 -336 -2 -3 -65 -3 -139 -2 l-135 3 256 711
256 712 3 -378 2 -379 -119 -331z m3583 370 l254 -705 -135 -3 c-75 -1 -138
-1 -140 1 -2 3 -58 154 -123 336 l-120 332 1 382 c0 210 2 378 5 372 2 -5 118
-327 258 -715z m-307 -427 l100 -278 -551 -5 c-505 -5 -554 -6 -579 -23 -40
-26 -53 -52 -81 -157 -40 -146 -4 -134 -424 -138 -366 -3 -417 1 -438 35 -6
10 -19 52 -29 93 -22 94 -46 142 -82 166 -26 18 -59 19 -579 24 l-552 5 74
205 c40 113 85 238 100 278 l26 72 1457 0 1458 0 100 -277z m-2161 -536 c26
-102 58 -156 116 -194 l42 -28 430 -3 c455 -3 459 -2 523 44 46 34 73 85 97
182 l22 87 767 3 767 2 0 -560 0 -560 -2160 0 -2160 0 0 560 0 560 767 -2 767
-3 22 -88z"/>
<path d="M2219 4341 c-54 -55 -43 -79 104 -228 l111 -113 -122 -123 c-105
-107 -122 -128 -122 -156 0 -38 46 -91 80 -91 37 0 62 19 177 133 l113 111
117 -116 c67 -65 130 -119 145 -123 58 -15 118 44 104 101 -5 18 -52 73 -124
146 l-116 118 116 118 c72 73 119 128 124 146 14 58 -44 116 -102 102 -18 -5
-73 -52 -147 -124 l-117 -116 -113 111 c-149 147 -173 158 -228 104z"/>
</g>
</svg>
