<?xml version="1.0" standalone="no"?>
<!DOCTYPE svg PUBLIC "-//W3C//DTD SVG 20010904//EN"
 "http://www.w3.org/TR/2001/REC-SVG-20010904/DTD/svg10.dtd">
<svg version="1.0" xmlns="http://www.w3.org/2000/svg"
 width="120" height="120" viewBox="0 0 512.000000 512.000000"
 preserveAspectRatio="xMidYMid meet">
<metadata>
Created by potrace 1.16, written by Peter Selinger 2001-2019
</metadata>
<g transform="translate(0.000000,512.000000) scale(0.100000,-0.100000)"
fill="#000000" stroke="none">
<path d="M2293 4785 c-377 -49 -704 -165 -991 -353 -520 -339 -860 -903 -947
-1565 -20 -155 -20 -459 0 -614 118 -904 698 -1595 1543 -1837 456 -131 918
-126 1372 14 817 252 1379 938 1495 1823 9 70 15 195 15 307 0 112 -6 237 -15
307 -103 791 -566 1430 -1254 1733 -372 163 -836 234 -1218 185z m509 -331
c569 -73 1048 -364 1342 -816 224 -344 341 -810 307 -1221 -71 -858 -599
-1501 -1399 -1702 -196 -50 -365 -69 -552 -62 -719 25 -1322 400 -1628 1012
-142 285 -206 563 -206 895 0 260 38 477 121 700 238 636 762 1065 1442 1180
64 11 132 21 151 23 93 10 311 5 422 -9z"/>
<path d="M1704 3501 c-71 -33 -113 -111 -100 -188 7 -33 50 -80 364 -395 l357
-358 -357 -357 c-314 -316 -357 -363 -364 -396 -20 -115 88 -223 203 -203 33
7 80 50 396 364 l357 357 358 -357 c315 -314 362 -357 395 -364 115 -20 223
88 203 203 -7 33 -50 80 -364 396 l-357 357 357 358 c314 315 357 362 364 395
20 115 -88 223 -203 203 -33 -7 -80 -50 -396 -364 l-357 -357 -353 352 c-193
194 -365 357 -380 363 -41 15 -76 12 -123 -9z"/>
</g>
</svg>
