<?xml version="1.0" standalone="no"?>
<!DOCTYPE svg PUBLIC "-//W3C//DTD SVG 20010904//EN"
 "http://www.w3.org/TR/2001/REC-SVG-20010904/DTD/svg10.dtd">
<svg version="1.0" xmlns="http://www.w3.org/2000/svg"
 width="800" height="800" viewBox="0 0 512.000000 512.000000"
 preserveAspectRatio="xMidYMid meet">
<metadata>
Created by potrace 1.16, written by Peter Selinger 2001-2019
</metadata>
<g transform="translate(0.000000,512.000000) scale(0.100000,-0.100000)"
fill="#a3a3a3" stroke="none">
<path d="M2496 4690 c-136 -41 -197 -208 -119 -327 48 -75 112 -103 233 -103
92 0 253 -23 359 -50 490 -125 896 -454 1117 -905 320 -655 190 -1429 -326
-1945 -525 -526 -1325 -650 -1979 -309 -854 446 -1172 1495 -706 2334 83 149
91 219 33 313 -42 69 -155 107 -245 81 -76 -21 -119 -73 -210 -255 -303 -607
-308 -1298 -14 -1899 215 -439 550 -774 986 -985 159 -78 264 -117 415 -154
488 -119 992 -69 1435 143 447 214 789 553 1006 996 393 804 244 1756 -378
2416 -283 299 -704 531 -1116 613 -194 39 -424 56 -491 36z"/>
</g>
</svg>
